<svg width="57" height="57" viewBox="0 0 57 57" fill="none" xmlns="http://www.w3.org/2000/svg">
<circle cx="28.5" cy="28.5" r="28.5" fill="#E35151"/>
<path d="M14.6917 31.2734C14.3934 30.9752 14.1532 30.6024 13.9958 30.1634C13.8384 29.7243 13.739 29.2604 13.7142 28.7551C13.6727 27.9018 13.797 27.1314 14.0952 26.419C14.3852 25.7149 14.8159 25.0688 15.3958 24.4889C16.2408 23.6439 17.3425 22.9398 18.7011 22.3931C20.0596 21.8463 21.559 21.4404 23.1909 21.1836C24.8394 20.9268 26.5128 20.7943 28.2276 20.786C29.9423 20.7943 31.6157 20.9268 33.2476 21.1836C34.8712 21.4487 36.3623 21.8463 37.696 22.3848C39.038 22.9315 40.1398 23.6356 41.0013 24.4972C41.5646 25.0605 42.0037 25.6983 42.3019 26.3942C42.6084 27.0983 42.7575 27.877 42.7327 28.7302C42.7244 29.7823 42.4013 30.619 41.7883 31.232C41.5563 31.4639 41.2747 31.6462 40.9682 31.7539C40.6534 31.8698 40.3138 31.9113 39.9493 31.845L35.3186 31.058C34.9624 31 34.6641 30.9172 34.4073 30.8095C34.1588 30.7101 33.9434 30.5775 33.786 30.4202C33.5872 30.2213 33.4464 29.9645 33.3719 29.658C33.289 29.3598 33.2476 29.0036 33.2476 28.606L33.2227 27.322C33.2227 27.1397 33.1565 26.9906 33.0239 26.8581C32.9577 26.7918 32.8914 26.7421 32.8085 26.6924C32.7174 26.651 32.6429 26.6261 32.5766 26.593C32.1541 26.4687 31.5411 26.3693 30.7459 26.3031C29.9423 26.2451 29.1056 26.2037 28.2358 26.1954C27.3495 26.2037 26.5128 26.2285 25.701 26.2948C24.9057 26.361 24.301 26.4687 23.8702 26.6013C23.8122 26.6261 23.7377 26.651 23.6548 26.6841C23.5637 26.7255 23.4892 26.7835 23.4146 26.8581C23.2738 26.9989 23.2158 27.1563 23.2158 27.3385L23.2075 28.5894C23.2075 29.0036 23.1661 29.3598 23.075 29.6498C23.0004 29.9563 22.8679 30.2048 22.6608 30.4119C22.5034 30.5693 22.3046 30.7018 22.0478 30.8095C21.791 30.9172 21.4927 31 21.1448 31.0663L16.4561 31.8616C16.0916 31.9278 15.7686 31.903 15.4704 31.787C15.1804 31.6627 14.9236 31.5053 14.6917 31.2734Z" stroke="white" stroke-width="2" stroke-miterlimit="10"/>
</svg>
