<svg width="18" height="20" viewBox="0 0 18 20" fill="none" xmlns="http://www.w3.org/2000/svg">
<g id="Group 1171275876">
<path id="Vector" fill-rule="evenodd" clip-rule="evenodd" d="M9.78152 13.2071C9.28905 13.5387 8.70701 13.7312 8.08498 13.7312C6.32617 13.7312 4.88721 12.1943 4.88721 10.316V7.97999L9.78152 13.2071Z" fill="white"/>
<path id="Vector_2" fill-rule="evenodd" clip-rule="evenodd" d="M8.08516 0.958326C9.84397 0.958326 11.2829 2.49512 11.2829 4.37351V10.316C11.2829 10.7395 11.2097 11.1457 11.0762 11.5207L11.7606 12.2517C12.0328 11.6671 12.1861 11.0096 12.1861 10.316V7.51554C12.1861 7.18259 12.4388 6.91272 12.7505 6.91272C13.0622 6.91272 13.315 7.18259 13.315 7.51554V10.316C13.315 11.3447 13.0513 12.3105 12.5927 13.1403L17.5274 18.4106C17.7478 18.6459 17.7478 19.0276 17.5274 19.263C17.307 19.4984 16.9496 19.4984 16.7293 19.263L0.165281 1.57285C-0.0550937 1.33749 -0.0550937 0.955791 0.165281 0.720433C0.385656 0.485075 0.743058 0.485075 0.963433 0.720433L4.88739 4.91117V4.37351C4.88739 2.4952 6.32642 0.958326 8.08516 0.958326Z" fill="white"/>
<path id="Vector_3" fill-rule="evenodd" clip-rule="evenodd" d="M10.6873 18.7291C10.999 18.7291 11.2517 18.9991 11.2517 19.332C11.2517 19.6648 10.999 19.9348 10.6873 19.9348H5.48307C5.17139 19.9348 4.91863 19.6649 4.91863 19.332C4.91863 18.999 5.17139 18.7291 5.48307 18.7291H7.52075V15.8686C6.30629 15.7279 5.21328 15.139 4.39125 14.261C3.44365 13.249 2.85547 11.8525 2.85547 10.3159V7.51547C2.85547 7.18253 3.10816 6.91265 3.41991 6.91265C3.73166 6.91265 3.98436 7.18253 3.98436 7.51547V10.3159C3.98436 11.5197 4.44591 12.6145 5.18947 13.4086C5.93297 14.2027 6.95813 14.6956 8.08527 14.6956C8.95602 14.6956 9.76583 14.4014 10.432 13.9014L11.2396 14.764C10.503 15.362 9.6147 15.7568 8.64971 15.8686V18.7291H10.6873H10.6873Z" fill="white"/>
</g>
</svg>
