<svg width="57" height="57" viewBox="0 0 57 57" fill="none" xmlns="http://www.w3.org/2000/svg">
<rect opacity="0.5" width="57" height="57" rx="28.5" fill="black"/>
<path fill-rule="evenodd" clip-rule="evenodd" d="M29.1991 29.1917C28.7902 29.467 28.307 29.6268 27.7905 29.6268C26.3302 29.6268 25.1354 28.3508 25.1354 26.7912V24.8516L29.1991 29.1917Z" fill="#D9D9D9"/>
<path fill-rule="evenodd" clip-rule="evenodd" d="M27.7908 19.0215C29.2511 19.0215 30.4459 20.2975 30.4459 21.8572V26.7912C30.4459 27.1429 30.3851 27.4801 30.2742 27.7915L30.8425 28.3985C31.0685 27.913 31.1958 27.3671 31.1958 26.7912V24.466C31.1958 24.1896 31.4057 23.9655 31.6644 23.9655C31.9232 23.9655 32.1331 24.1896 32.1331 24.466V26.7912C32.1331 27.6454 31.9142 28.4473 31.5334 29.1363L35.6307 33.5122C35.8137 33.7076 35.8137 34.0245 35.6307 34.22C35.4477 34.4154 35.151 34.4154 34.968 34.22L21.2149 19.5318C21.0319 19.3363 21.0319 19.0194 21.2149 18.824C21.3978 18.6286 21.6946 18.6286 21.8776 18.824L25.1357 22.3036V21.8572C25.1357 20.2976 26.3305 19.0215 27.7908 19.0215Z" fill="#D9D9D9"/>
<path fill-rule="evenodd" clip-rule="evenodd" d="M29.4965 33.5984C29.7554 33.5984 29.9652 33.8225 29.9652 34.0989C29.9652 34.3753 29.7554 34.5994 29.4965 34.5994H25.1755C24.9167 34.5994 24.7068 34.3754 24.7068 34.0989C24.7068 33.8225 24.9167 33.5984 25.1755 33.5984H26.8674V31.2233C25.859 31.1065 24.9515 30.6175 24.2689 29.8885C23.4821 29.0482 22.9938 27.8887 22.9938 26.6128V24.2876C22.9938 24.0112 23.2036 23.7871 23.4624 23.7871C23.7213 23.7871 23.9311 24.0112 23.9311 24.2876V26.6128C23.9311 27.6123 24.3143 28.5214 24.9317 29.1807C25.549 29.8401 26.4002 30.2493 27.3361 30.2493C28.0591 30.2493 28.7315 30.005 29.2846 29.5899L29.9552 30.3061C29.3436 30.8026 28.606 31.1304 27.8048 31.2233V33.5984H29.4966H29.4965Z" fill="#D9D9D9"/>
</svg>
